<svg width="32" height="32" viewBox="0 0 32 32" fill="none" xmlns="http://www.w3.org/2000/svg">
<circle cx="16" cy="16" r="16" fill="#161617"/>
<path d="M15.942 6.375C10.6605 6.375 6.37695 10.5831 6.37695 15.7733C6.37695 19.9258 9.11735 23.4485 12.9187 24.6915C13.3961 24.7784 13.5508 24.4871 13.5508 24.2396V22.4899C10.8901 23.0585 10.3361 21.3809 10.3361 21.3809C9.90089 20.2946 9.27358 20.0056 9.27358 20.0056C8.40555 19.4222 9.33974 19.4347 9.33974 19.4347C10.3002 19.5005 10.8056 20.4035 10.8056 20.4035C11.6585 21.8399 13.043 21.4248 13.589 21.1843C13.6743 20.5774 13.9222 20.1623 14.1964 19.9281C12.0722 19.6892 9.83872 18.8833 9.83872 15.283C9.83872 14.2562 10.2126 13.4182 10.8239 12.7603C10.7251 12.523 10.3975 11.5668 10.9172 10.2729C10.9172 10.2729 11.7207 10.0207 13.5484 11.2363C14.3112 11.0279 15.129 10.9238 15.942 10.9199C16.7551 10.9238 17.5737 11.0279 18.3381 11.2363C20.1642 10.0207 20.9661 10.2729 20.9661 10.2729C21.4866 11.5676 21.159 12.5238 21.0602 12.7603C21.6739 13.4182 22.0446 14.257 22.0446 15.283C22.0446 18.8927 19.8071 19.6877 17.6773 19.9203C18.0201 20.2116 18.3333 20.7833 18.3333 21.6605V24.2396C18.3333 24.4894 18.4864 24.7831 18.9718 24.6907C22.7699 23.4462 25.5071 19.9242 25.5071 15.7733C25.5071 10.5831 21.2244 6.375 15.942 6.375Z" fill="white"/>
</svg>
