<svg fill="none" height="124" viewBox="0 0 568 124" width="568"
  xmlns="http://www.w3.org/2000/svg">
  <g fill="#161617">
    <path d="m5.85797 118v-111.3h33.07203v111.3z"/>
    <path d="m58.6509 118v-111.3h41.9761l23.691 72.663 23.532-72.663h41.022v111.3h-31.8v-70.596l-20.352 70.596h-24.486l-21.7831-70.914v70.914z"/>
    <path d="m329.485 56.785v22.419h-8.745c-3.074 13.568-9.646 24.009-19.716 31.323-9.964 7.314-22.949 10.971-38.955 10.971-17.914 0-32.489-5.512-43.725-16.536-11.13-11.024-16.695-25.122-16.695-42.294.106-17.384 5.724-31.641 16.854-42.771 11.236-11.13 26.288-16.695 45.156-16.695 16.218 0 29.468 3.604 39.75 10.812 10.388 7.208 16.006 16.589 16.854 28.143h-35.934c-.848-3.71-3.127-6.678-6.837-8.904-3.604-2.332-8.162-3.498-13.674-3.498-8.798 0-15.635 2.915-20.511 8.745-4.77 5.724-7.155 13.409-7.155 23.055 0 9.434 2.491 17.119 7.473 23.055 4.982 5.83 11.607 8.745 19.875 8.745 12.296 0 20.034-4.717 23.214-14.151h-18.285v-22.419z"/>
  </g>
  <circle cx="358" cy="102" fill="#471aff" r="18"/>
  <path d="m393.858 118v-111.30002h33.072v82.83902h28.842v28.461z" fill="#161617"/>
  <path d="m530.085 6.69998h36.888l-55.173 111.30002h-37.047l19.08-39.114-37.365-72.18602h38.955l17.649 39.75002z" fill="#161617"/>
</svg>