<svg width="73" height="72" viewBox="0 0 73 72" fill="none" xmlns="http://www.w3.org/2000/svg">
<path fill-rule="evenodd" clip-rule="evenodd" d="M17.1244 12.3781C15.9748 11.2285 14.04 11.1824 12.8766 12.3896L10.8896 14.3766C9.68238 15.54 9.72851 17.4748 10.8781 18.6244L10.9095 18.6558L10.9427 18.6853L26.608 32.598C26.5214 33.1065 26.5038 33.5815 26.5038 34.0038C26.5038 37.5541 29.3486 39.8965 32.2929 40.6773C32.9997 40.8647 33.7469 40.9733 34.5054 40.9905L34.5 41H60C60.8284 41 61.5 40.3284 61.5 39.5C61.5 38.6716 60.8284 38 60 38H41.8527L41.0849 38.0492C41.1229 38.0012 41.1605 37.9525 41.1977 37.9031L41.8894 36.9859L41.1841 36.0791C40.3734 35.0368 39.9381 34.2629 39.6683 33.6646C39.4647 33.2132 39.3561 32.8749 39.2353 32.4991L39.2353 32.499C39.1864 32.3466 39.1355 32.1881 39.0754 32.0133C38.869 31.4122 38.5924 30.7703 37.9923 30.0973C37.4255 29.4617 36.6343 28.8697 35.5138 28.2112C34.5258 27.6305 33.1855 27.4873 32.0063 27.6182C31.967 27.6226 31.9276 27.6273 31.888 27.6323L31.7778 27.5185L17.1416 12.3956L17.1331 12.3868L17.1244 12.3781ZM13.0046 16.5042L27.639 29.5013L28.5958 28.5445L15.0061 14.5028L13.0046 16.5042ZM33.9937 30.7976C33.7602 30.6603 33.1436 30.5104 32.3373 30.5999C31.5519 30.6871 30.9125 30.9669 30.5644 31.3151C30.045 31.8345 29.8026 32.2778 29.675 32.6589C29.5423 33.0554 29.5038 33.4714 29.5038 34.0038C29.5038 35.704 30.891 37.2018 33.0618 37.7775C34.8339 38.2474 36.7189 37.9715 38.0546 36.8761C37.5491 36.1296 37.1964 35.4808 36.9336 34.8981C36.6535 34.2772 36.4716 33.7097 36.341 33.3023L36.341 33.3022C36.3027 33.1828 36.2688 33.0771 36.2382 32.9878C36.1013 32.5895 35.988 32.3572 35.7532 32.0939C35.4851 31.7933 34.9964 31.3869 33.9937 30.7976Z" fill="#471AFF"/>
<path fill-rule="evenodd" clip-rule="evenodd" d="M53.6404 51.7213L52.373 52.4282C52.0563 52.6048 51.86 52.939 51.86 53.3016L51.86 57C51.86 57.5523 51.4123 58 50.86 58L45.2049 58C44.6526 58 44.2049 57.5523 44.2049 57L44.2049 53.2903C44.2049 52.9337 44.015 52.6042 43.7066 52.4253L42.4749 51.7108C42.1401 51.5166 41.7234 51.5331 41.4049 51.7529L37.8163 54.2308C37.4242 54.5015 36.8956 54.4581 36.553 54.1269L33.0367 50.7278C32.6556 50.3594 32.6282 49.7575 32.9743 49.3559L35.3731 46.5734C35.6196 46.2874 35.684 45.887 35.5397 45.5381L34.6637 43.4211C34.509 43.0473 34.1442 42.8035 33.7397 42.8035L29.8945 42.8035C29.3423 42.8035 28.8945 42.3558 28.8945 41.8035L28.8945 37.1963C28.8945 36.6441 29.3423 36.1963 29.8945 36.1963L33.7397 36.1963C34.1442 36.1963 34.509 35.9525 34.6637 35.5787L35.5397 33.4617C35.684 33.1128 35.6196 32.7124 35.3731 32.4264L32.9743 29.6439C32.6282 29.2424 32.6556 28.6405 33.0367 28.272L36.6106 24.8173C36.9265 24.5119 37.4046 24.4485 37.7891 24.6609L41.431 26.6726C41.7385 26.8424 42.1125 26.8385 42.4163 26.6623L43.7066 25.9139C44.015 25.735 44.2049 25.4054 44.2049 25.0489L44.2049 21.9999C44.2049 21.4476 44.6526 20.9999 45.2049 20.9999L50.4955 20.9999C51.0478 20.9999 51.4955 21.4476 51.4955 21.9999L51.4955 24.9976C51.4955 25.3812 51.715 25.731 52.0604 25.8979L53.7243 26.7022C54.0381 26.8538 54.4082 26.8312 54.7012 26.6424L57.6639 24.7331C58.0544 24.4814 58.5667 24.5318 58.9007 24.8546L62.4359 28.272C62.817 28.6405 62.8444 29.2424 62.4982 29.6439L60.1389 32.3808C59.8722 32.6901 59.8204 33.1304 60.008 33.4932L60.7849 34.9951C60.9566 35.3271 61.2993 35.5356 61.6731 35.5356L64.8945 35.5356C65.4468 35.5356 65.8945 35.9833 65.8945 36.5356L65.8945 41.8035C65.8945 42.3558 65.4468 42.8035 64.8945 42.8035L61.7329 42.8035C61.3283 42.8035 60.9636 43.0473 60.8089 43.4211L59.9329 45.5381C59.7886 45.887 59.853 46.2874 60.0995 46.5734L62.4982 49.3559C62.8444 49.7575 62.817 50.3594 62.4359 50.7278L58.9653 54.0827C58.6027 54.4333 58.0357 54.4589 57.6429 54.1425L54.7548 51.8159C54.4374 51.5602 53.9964 51.5228 53.6404 51.7213ZM47.5007 32C43.0825 32 39.5007 35.5817 39.5007 40C39.5007 44.4183 43.0825 48 47.5007 48C51.919 48 55.5007 44.4183 55.5007 40C55.5007 35.5817 51.919 32 47.5007 32Z" fill="#161617" fill-opacity="0.25"/>
<path fill-rule="evenodd" clip-rule="evenodd" d="M24.0599 60.0089L23.1471 60.239C22.919 60.2965 22.74 60.4729 22.6791 60.7001L22.0582 63.0173C21.9655 63.3633 21.6098 63.5687 21.2638 63.476L17.7205 62.5266C17.3745 62.4338 17.1692 62.0782 17.2619 61.7321L17.8847 59.4078C17.9445 59.1844 17.8809 58.9461 17.7177 58.7822L17.0659 58.1278C16.8888 57.9499 16.6249 57.8902 16.3885 57.9745L13.724 58.9246C13.4329 59.0284 13.109 58.9124 12.95 58.6474L11.3175 55.9274C11.1405 55.6325 11.2244 55.2508 11.5087 55.0573L13.4788 53.7167C13.6812 53.5789 13.7889 53.3388 13.757 53.096L13.5635 51.6225C13.5294 51.3623 13.3418 51.1483 13.0883 51.0804L10.6791 50.4349C10.3331 50.3422 10.1278 49.9865 10.2205 49.6405L10.9939 46.7539C11.0866 46.4078 11.4423 46.2025 11.7884 46.2952L14.1975 46.9407C14.451 47.0086 14.7204 46.9171 14.8801 46.7089L15.7844 45.5295C15.9334 45.3352 15.9603 45.0735 15.8538 44.8529L14.818 42.7068C14.6686 42.3971 14.7868 42.0246 15.0875 41.8577L17.9066 40.2932C18.1558 40.1549 18.466 40.1954 18.6713 40.3931L20.6154 42.2649C20.7795 42.4229 21.0145 42.4833 21.2344 42.4239L22.1685 42.1716C22.3918 42.1113 22.5661 41.9367 22.6259 41.7133L23.1378 39.8029C23.2305 39.4569 23.5862 39.2515 23.9322 39.3443L27.2471 40.2325C27.5931 40.3252 27.7985 40.6809 27.7057 41.0269L27.2025 42.9051C27.1381 43.1454 27.2168 43.4014 27.4052 43.564L28.3127 44.3473C28.4839 44.495 28.7196 44.5429 28.9348 44.4738L31.1117 43.7749C31.3986 43.6828 31.7111 43.8004 31.8661 44.0587L33.5074 46.7933C33.6844 47.0882 33.6005 47.4699 33.3162 47.6634L31.3784 48.9821C31.1594 49.1311 31.0531 49.3983 31.1097 49.6571L31.3443 50.7285C31.3962 50.9654 31.5758 51.1535 31.8101 51.2163L33.8284 51.7571C34.1745 51.8498 34.3798 52.2055 34.2871 52.5516L33.4027 55.8521C33.31 56.1982 32.9543 56.4035 32.6083 56.3108L30.6274 55.78C30.3739 55.7121 30.1044 55.8036 29.9448 56.0119L29.0405 57.1912C28.8915 57.3855 28.8646 57.6473 28.9711 57.8678L30.0068 60.0139C30.1563 60.3236 30.0381 60.6961 29.7374 60.863L26.9997 62.3823C26.7137 62.5411 26.3542 62.462 26.1612 62.1978L24.7422 60.2552C24.5863 60.0417 24.3163 59.9442 24.0599 60.0089ZM22.5015 56C25.2629 56 27.5015 53.7614 27.5015 51C27.5015 48.2386 25.2629 46 22.5015 46C19.74 46 17.5015 48.2386 17.5015 51C17.5015 53.7614 19.74 56 22.5015 56Z" fill="#161617" fill-opacity="0.25"/>
</svg>
