<svg width="72" height="72" viewBox="0 0 72 72" fill="none" xmlns="http://www.w3.org/2000/svg">
<path d="M43.368 54H45.96L42.296 42.592H39.016L35.384 54H37.976L38.68 51.712H42.664L43.368 54ZM39.368 49.424L40.664 45.184L41.96 49.424H39.368ZM52.0885 42.592H47.7045V54H52.0885C55.4965 54 57.3365 51.92 57.3365 48.272C57.3365 44.672 55.4965 42.592 52.0885 42.592ZM52.0885 51.712H50.2005V44.88H52.0885C53.9125 44.88 54.8085 46.08 54.8085 48.272C54.8085 50.544 53.9125 51.712 52.0885 51.712Z" fill="#161617" fill-opacity="0.25"/>
<path fill-rule="evenodd" clip-rule="evenodd" d="M64 31L64 58C64 59.6569 62.6569 61 61 61L15 61C13.3431 61 12 59.6569 12 58L12 31C12 29.3431 13.3431 28 15 28L61 28C62.6569 28 64 29.3431 64 31ZM60 33L60 56C60 56.5523 59.5523 57 59 57L17 57C16.4477 57 16 56.5523 16 56L16 33C16 32.4477 16.4477 32 17 32L59 32C59.5523 32 60 32.4477 60 33Z" fill="#161617" fill-opacity="0.25"/>
<path d="M47 14.3333L48.6 13M51.8 25L55 25M47 35.6667L48.6 37" stroke="#471AFF" stroke-width="3" stroke-linecap="round"/>
<mask id="path-4-inside-1_4951_387474" fill="white">
<rect x="33" y="9" width="9" height="32" rx="2"/>
</mask>
<rect x="33" y="9" width="9" height="32" rx="2" stroke="#471AFF" stroke-width="6" mask="url(#path-4-inside-1_4951_387474)"/>
<path d="M33 36.5H31.3426C31.1158 36.5 30.8908 36.4614 30.6769 36.386L14.3231 30.614C14.1092 30.5386 13.8842 30.5 13.6574 30.5H11.5C10.3954 30.5 9.5 29.6046 9.5 28.5V21.5C9.5 20.3954 10.3954 19.5 11.5 19.5H13.6574C13.8842 19.5 14.1092 19.4614 14.3231 19.386L30.6769 13.614C30.8908 13.5386 31.1158 13.5 31.3426 13.5H33" stroke="#471AFF" stroke-width="3"/>
<path d="M26.9542 35.5882C26.2395 38.2555 23.4978 39.8384 20.8305 39.1237C18.1631 38.409 16.5802 35.6673 17.2949 33" stroke="#471AFF" stroke-width="3"/>
<path d="M41 29C43.2091 29 45 27.2091 45 25C45 22.7909 43.2091 21 41 21V29Z" fill="#471AFF"/>
</svg>
