<svg width="72" height="72" viewBox="0 0 72 72" fill="none" xmlns="http://www.w3.org/2000/svg">
<mask id="path-1-inside-1_5745_270132" fill="white">
<path d="M26 15C26 13.3431 24.6569 12 23 12H13C11.3431 12 10 13.3431 10 15V24C10 25.6569 11.3431 27 13 27H23C24.6569 27 26 25.6569 26 24V15Z"/>
</mask>
<path d="M23 15H13V9H23V15ZM13 15V24H7V15H13ZM13 24H23V30H13V24ZM23 24V15H29V24H23ZM23 24H29C29 27.3137 26.3137 30 23 30V24ZM13 24V30C9.68629 30 7 27.3137 7 24H13ZM13 15H7C7 11.6863 9.68629 9 13 9V15ZM23 9C26.3137 9 29 11.6863 29 15H23V15V9Z" fill="#471AFF" mask="url(#path-1-inside-1_5745_270132)"/>
<path d="M41 25C41 23.3431 39.6569 22 38 22H28C26.3431 22 25 23.3431 25 25V34C25 35.6569 26.3431 37 28 37H38C39.6569 37 41 35.6569 41 34V25Z" fill="#161617" fill-opacity="0.25"/>
<mask id="path-4-inside-2_5745_270132" fill="white">
<path d="M46 15C46 13.3431 44.6569 12 43 12H32C30.3431 12 29 13.3431 29 15V29C29 30.6569 30.3431 32 32 32H43C44.6569 32 46 30.6569 46 29V15Z"/>
</mask>
<path d="M43 15H32V9H43V15ZM32 15V29H26V15H32ZM32 29H43V35H32V29ZM43 29V15H49V29H43ZM43 29H43H49C49 32.3137 46.3137 35 43 35V29ZM32 29V35C28.6863 35 26 32.3137 26 29H32ZM32 15H26C26 11.6863 28.6863 9 32 9V15ZM43 9C46.3137 9 49 11.6863 49 15H43V15V9Z" fill="#471AFF" mask="url(#path-4-inside-2_5745_270132)"/>
<path d="M61 25C61 23.3431 59.6569 22 58 22H47C45.3431 22 44 23.3431 44 25V39C44 40.6569 45.3431 42 47 42H58C59.6569 42 61 40.6569 61 39V25Z" fill="#161617" fill-opacity="0.25"/>
<mask id="path-7-inside-3_5745_270132" fill="white">
<path d="M29 47C29 48.6569 30.3431 50 32 50H43C44.6569 50 46 48.6569 46 47V38C46 36.3431 44.6569 35 43 35H32C30.3431 35 29 36.3431 29 38V47Z"/>
</mask>
<path d="M32 47H43V53H32V47ZM43 47V38H49V47H43ZM43 38H32V32H43V38ZM32 38V47H26V38H32ZM32 38H32H26C26 34.6863 28.6863 32 32 32V38ZM43 38V32C46.3137 32 49 34.6863 49 38H43ZM43 47H49C49 50.3137 46.3137 53 43 53V47ZM32 53C28.6863 53 26 50.3137 26 47H32V47V53Z" fill="#471AFF" mask="url(#path-7-inside-3_5745_270132)"/>
<mask id="path-9-inside-4_5745_270132" fill="white">
<path d="M10 47C10 48.6569 11.3431 50 13 50H23C24.6569 50 26 48.6569 26 47V33C26 31.3431 24.6569 30 23 30H13C11.3431 30 10 31.3431 10 33V47Z"/>
</mask>
<path d="M13 47H23V53H13V47ZM23 47V33H29V47H23ZM23 33H13V27H23V33ZM13 33V47H7V33H13ZM13 33H7C7 29.6863 9.68629 27 13 27V33ZM23 33V27C26.3137 27 29 29.6863 29 33H23ZM23 47H29C29 50.3137 26.3137 53 23 53V47ZM13 53C9.68629 53 7 50.3137 7 47H13V47V53Z" fill="#471AFF" mask="url(#path-9-inside-4_5745_270132)"/>
<path d="M25 57C25 58.6569 26.3431 60 28 60H38C39.6569 60 41 58.6569 41 57V43C41 41.3431 39.6569 40 38 40H28C26.3431 40 25 41.3431 25 43V57Z" fill="#161617" fill-opacity="0.25"/>
<path fill-rule="evenodd" clip-rule="evenodd" d="M47 60C45.3431 60 44 58.6569 44 57V48C44 46.3431 45.3431 45 47 45H58C59.6569 45 61 46.3431 61 48V57C61 58.6569 59.6569 60 58 60H47ZM51 49.5C51 48.6716 51.6716 48 52.5 48C53.3284 48 54 48.6716 54 49.5V51H55.5C56.3284 51 57 51.6716 57 52.5C57 53.3284 56.3284 54 55.5 54H54V55.5C54 56.3284 53.3284 57 52.5 57C51.6716 57 51 56.3284 51 55.5V54H49.5C48.6716 54 48 53.3284 48 52.5C48 51.6716 48.6716 51 49.5 51H51V49.5Z" fill="#161617" fill-opacity="0.25"/>
</svg>
