<svg width="72" height="72" viewBox="0 0 72 72" fill="none" xmlns="http://www.w3.org/2000/svg">
<path d="M14.2872 28.672C13.3752 28.672 12.6232 28.928 12.0632 29.408V24.992H9.59919V38H12.0632V32.544C12.0632 31.584 12.5432 30.976 13.5192 30.976C14.4632 30.976 15.0232 31.552 15.0232 32.336V38H17.4872V32.384C17.4872 30.016 16.3992 28.672 14.2872 28.672ZM25.7219 35.2C25.3379 35.712 24.9379 35.952 24.2979 35.952C23.5299 35.952 23.0659 35.392 23.0659 34.624V31.056H26.3299V28.832H23.0659V26.592H20.6019V28.832H19.0179V31.056H20.6019V34.624C20.6019 36.72 21.7539 38.176 24.2339 38.176C25.7379 38.176 26.6979 37.552 27.5139 36.56L25.7219 35.2ZM34.4407 35.2C34.0567 35.712 33.6567 35.952 33.0167 35.952C32.2487 35.952 31.7847 35.392 31.7847 34.624V31.056H35.0487V28.832H31.7847V26.592H29.3207V28.832H27.7367V31.056H29.3207V34.624C29.3207 36.72 30.4727 38.176 32.9527 38.176C34.4567 38.176 35.4167 37.552 36.2327 36.56L34.4407 35.2ZM42.2121 28.672C41.1241 28.672 40.2441 29.008 39.6521 29.696V28.832H37.3961V41.728H39.8601V37.344C40.4521 37.904 41.2521 38.176 42.2281 38.176C44.4681 38.176 45.8441 36.432 45.8441 33.424C45.8441 30.384 44.4681 28.672 42.2121 28.672ZM41.6201 35.872C40.3081 35.872 39.8601 35.248 39.8601 33.888V32.944C39.8601 31.6 40.3081 30.976 41.6041 30.976C42.8521 30.976 43.3641 31.776 43.3641 33.424C43.3641 35.072 42.8521 35.872 41.6201 35.872ZM49.2252 32.256C50.2172 32.256 50.7612 31.568 50.7612 30.64C50.7612 29.68 50.2172 28.992 49.2252 28.992C48.2332 28.992 47.7052 29.68 47.7052 30.64C47.7052 31.568 48.2332 32.256 49.2252 32.256ZM49.2252 38.048C50.2172 38.048 50.7612 37.36 50.7612 36.432C50.7612 35.472 50.2172 34.784 49.2252 34.784C48.2332 34.784 47.7052 35.472 47.7052 36.432C47.7052 37.36 48.2332 38.048 49.2252 38.048ZM58.5079 26.592H56.3479L52.1879 38H54.3479L58.5079 26.592ZM63.3517 26.592H61.1917L57.0317 38H59.1917L63.3517 26.592Z" fill="#471AFF"/>
<path fill-rule="evenodd" clip-rule="evenodd" d="M20 13C20 11.3431 21.3431 10 23 10H49C50.6569 10 52 11.3431 52 13V19H49V14C49 13.4477 48.5523 13 48 13H24C23.4477 13 23 13.4477 23 14V19H20V13Z" fill="#471AFF"/>
<path fill-rule="evenodd" clip-rule="evenodd" d="M52 53.3431C52 54.404 51.5786 55.4214 50.8284 56.1716L46.1716 60.8284C45.4214 61.5786 44.404 62 43.3431 62L23 62C21.3431 62 20 60.6569 20 59L20 44L23 44L23 58C23 58.5523 23.4477 59 24 59L42.6716 59C43.202 59 43.7107 58.7893 44.0858 58.4142L48.4142 54.0858C48.7893 53.7107 49 53.202 49 52.6716L49 44L52 44L52 53.3431Z" fill="#471AFF"/>
<path fill-rule="evenodd" clip-rule="evenodd" d="M62 49V22C62 20.3431 60.6569 19 59 19H13C11.3431 19 10 20.3431 10 22V49C10 50.6569 11.3431 52 13 52L20 52V48H52V52L59 52C60.6569 52 62 50.6568 62 49ZM58 47V24C58 23.4477 57.5523 23 57 23L15 23C14.4477 23 14 23.4477 14 24L14 47C14 47.5523 14.4477 48 15 48L57 48C57.5523 48 58 47.5523 58 47Z" fill="#161617" fill-opacity="0.25"/>
<rect x="27" y="46" width="18" height="3" rx="1.5" fill="#471AFF"/>
<rect x="27" y="52" width="13" height="3" rx="1.5" fill="#471AFF"/>
</svg>
