<svg width="73" height="72" viewBox="0 0 73 72" fill="none" xmlns="http://www.w3.org/2000/svg">
<path fill-rule="evenodd" clip-rule="evenodd" d="M62.5 49V22C62.5 20.3431 61.1569 19 59.5 19H13.5C11.8431 19 10.5 20.3431 10.5 22V49C10.5 50.6569 11.8431 52 13.5 52L20.5 52V48H52.5V52L59.5 52C61.1569 52 62.5 50.6568 62.5 49ZM58.5 47V24C58.5 23.4477 58.0523 23 57.5 23L15.5 23C14.9477 23 14.5 23.4477 14.5 24L14.5 47C14.5 47.5523 14.9477 48 15.5 48L57.5 48C58.0523 48 58.5 47.5523 58.5 47Z" fill="#161617" fill-opacity="0.25"/>
<path d="M21.1436 30.88V28.88C21.1436 28.304 21.4156 28 21.9756 28H22.3116V26.032H21.1436C19.4796 26.032 18.8556 27.088 18.8556 28.048V30.56C18.8556 31.632 18.5036 32 17.4156 32V34C18.5036 34 18.8556 34.368 18.8556 35.44V37.936C18.8556 38.896 19.4796 39.968 21.1436 39.968H22.3116V37.984H21.9756C21.4156 37.984 21.1436 37.68 21.1436 37.104V35.104C21.1436 33.76 20.6956 33.168 19.6716 32.992C20.6956 32.816 21.1436 32.224 21.1436 30.88ZM27.9425 35.856H27.8305L26.0385 28.832H23.4625L26.2625 38H29.4625L32.3105 28.832H29.7185L27.9425 35.856ZM37.1746 28.672C35.3186 28.672 34.1826 29.296 33.2706 30.992L35.3826 32.112C35.7186 31.36 36.2626 30.976 37.1426 30.976C37.9906 30.976 38.4226 31.312 38.4226 32.176V32.544H36.5826C34.1186 32.544 33.0626 33.728 33.0626 35.344C33.0626 36.896 34.1986 38.176 36.2306 38.176C37.2546 38.176 38.0546 37.872 38.6146 37.264V38H40.8866V32.384C40.8866 29.712 39.5906 28.672 37.1746 28.672ZM36.6306 35.952C35.7666 35.952 35.5266 35.616 35.5266 35.28C35.5266 34.736 35.8946 34.528 36.5826 34.528H38.4066C38.2786 35.664 37.5426 35.952 36.6306 35.952ZM47.7593 28.672C46.8313 28.672 46.0633 28.928 45.5193 29.472V28.832H43.2633V38H45.7273V32.368C45.7273 31.36 46.3833 30.976 47.1993 30.976C47.6633 30.976 48.0793 31.136 48.3033 31.392L49.8553 29.584C49.4233 29.088 48.6873 28.672 47.7593 28.672ZM54.1455 30.56V28.048C54.1455 27.088 53.5215 26.032 51.8575 26.032H50.6735V28H51.0255C51.5855 28 51.8575 28.304 51.8575 28.88V30.88C51.8575 32.224 52.3055 32.816 53.3135 32.992C52.3055 33.168 51.8575 33.76 51.8575 35.104V37.104C51.8575 37.68 51.5855 37.984 51.0255 37.984H50.6735V39.968H51.8575C53.5215 39.968 54.1455 38.896 54.1455 37.936V35.44C54.1455 34.368 54.4975 34 55.5855 34V32C54.4975 32 54.1455 31.632 54.1455 30.56Z" fill="#471AFF"/>
<path fill-rule="evenodd" clip-rule="evenodd" d="M20.5 13C20.5 11.3431 21.8431 10 23.5 10H49.5C51.1569 10 52.5 11.3431 52.5 13V19H49.5V14C49.5 13.4477 49.0523 13 48.5 13H24.5C23.9477 13 23.5 13.4477 23.5 14V19H20.5V13Z" fill="#471AFF"/>
<path fill-rule="evenodd" clip-rule="evenodd" d="M52.5 53.3431C52.5 54.404 52.0786 55.4214 51.3284 56.1716L46.6716 60.8284C45.9214 61.5786 44.904 62 43.8431 62L23.5 62C21.8431 62 20.5 60.6569 20.5 59L20.5 44L23.5 44L23.5 58C23.5 58.5523 23.9477 59 24.5 59L43.1716 59C43.702 59 44.2107 58.7893 44.5858 58.4142L48.9142 54.0858C49.2893 53.7107 49.5 53.202 49.5 52.6716L49.5 44L52.5 44L52.5 53.3431Z" fill="#471AFF"/>
<rect x="27.5" y="46" width="18" height="3" rx="1.5" fill="#471AFF"/>
<rect x="27.5" y="52" width="13" height="3" rx="1.5" fill="#471AFF"/>
</svg>
