<svg width="72" height="72" viewBox="0 0 72 72" fill="none" xmlns="http://www.w3.org/2000/svg">
<path d="M63.03 17.5C62.9037 17.6405 62.7632 17.794 62.609 17.9585C61.8109 18.8098 60.6562 19.9444 59.2335 21.0761C56.3492 23.3702 52.5547 25.5 48.5 25.5C44.4453 25.5 40.6508 23.3702 37.7665 21.0761C36.3438 19.9444 35.1891 18.8098 34.391 17.9585C34.2368 17.794 34.0963 17.6405 33.97 17.5C34.0963 17.3595 34.2368 17.206 34.391 17.0415C35.1891 16.1902 36.3438 15.0556 37.7665 13.9239C40.6508 11.6298 44.4453 9.5 48.5 9.5C52.5547 9.5 56.3492 11.6298 59.2335 13.9239C60.6562 15.0556 61.8109 16.1902 62.609 17.0415C62.7632 17.206 62.9037 17.3595 63.03 17.5Z" stroke="#471AFF" stroke-width="3"/>
<circle cx="48.5" cy="17.5" r="5.5" fill="#471AFF"/>
<line x1="38.2481" y1="8.16795" x2="40.2481" y2="11.1679" stroke="#471AFF" stroke-width="3"/>
<line y1="-1.5" x2="3.60555" y2="-1.5" transform="matrix(-0.5547 0.83205 0.83205 0.5547 60 9)" stroke="#471AFF" stroke-width="3"/>
<line x1="48.5" y1="5" x2="48.5" y2="9" stroke="#471AFF" stroke-width="3"/>
<path fill-rule="evenodd" clip-rule="evenodd" d="M62 16L62 56C62 57.6569 60.6569 59 59 59L13 59C11.3431 59 10 57.6569 10 56L10 16C10 14.3431 11.3431 13 13 13L59 13C60.6569 13 62 14.3431 62 16ZM58 18L58 54C58 54.5523 57.5523 55 57 55L15 55C14.4477 55 14 54.5523 14 54L14 18C14 17.4477 14.4477 17 15 17L57 17C57.5523 17 58 17.4477 58 18Z" fill="#161617" fill-opacity="0.25"/>
<rect x="17" y="35" width="13" height="3" rx="1.5" fill="#161617" fill-opacity="0.25"/>
<rect x="17" y="20" width="13" height="3" rx="1.5" fill="#161617" fill-opacity="0.25"/>
<rect x="17" y="26" width="4" height="6" rx="2" fill="#471AFF"/>
<rect x="17" y="41" width="35" height="3" rx="1.5" fill="#471AFF"/>
<rect x="46" y="35" width="9" height="17" rx="2" fill="#161617" fill-opacity="0.25"/>
<rect x="17" y="47" width="26" height="3" rx="1.5" fill="#471AFF"/>
<rect x="24" y="26" width="6" height="4" rx="2" fill="#471AFF"/>
</svg>
